<svg xmlns="http://www.w3.org/2000/svg" width="230" height="57" fill="none"><path fill="#C7951A" d="M0 .765v55.47h17.536V33.938H37.13v22.299h18.43V13.935h17.782V.765H22.29V14.24h14.84v5.233H17.146V.764z"/><g fill="#C7951A"><path d="M227.603 56.079v-2.397H230v2.397zM222.978 56.236q-1.425 0-2.444-.502a3.5 3.5 0 0 1-1.551-1.44q-.533-.956-.533-2.288 0-1.348.533-2.288a3.5 3.5 0 0 1 1.551-1.441q1.019-.502 2.444-.502.721 0 1.348.141t1.222.455l-.345 1.645a4.4 4.4 0 0 0-1.065-.423 3.7 3.7 0 0 0-1.003-.141q-1.19 0-1.849.658-.642.657-.642 1.896 0 1.221.642 1.895.658.659 1.849.658.502 0 1.003-.125.517-.14 1.065-.439l.345 1.646q-.595.313-1.222.454a6 6 0 0 1-1.348.14M209.344 56.08v-8.148h2.052l.016.956h.031a3.1 3.1 0 0 1 1.16-.83q.674-.283 1.551-.283 1.472 0 2.162.8.705.783.705 2.49v5.014h-2.146v-4.59q0-1.02-.345-1.473-.344-.47-1.097-.47-.564 0-1.003.235-.438.22-.689.61-.235.378-.235.894v4.794zM204.653 56.079V44.642h2.287v11.437zM186.195 56.08v-8.148h2.052l.016.956h.031a3.1 3.1 0 0 1 1.159-.83q.675-.283 1.551-.283 1.473 0 2.163.8.705.783.705 2.49v5.014h-2.147v-4.59q0-1.02-.344-1.473-.345-.47-1.097-.47-.564 0-1.003.235-.438.22-.689.61-.235.378-.235.894v4.794zM180.405 56.236q-2.005 0-3.103-1.097-1.08-1.097-1.081-3.133t1.081-3.134q1.098-1.097 3.103-1.097t3.086 1.097 1.081 3.134-1.081 3.133-3.086 1.097m0-1.677q1.002 0 1.504-.642.517-.642.517-1.911t-.517-1.912q-.502-.642-1.504-.642-.987 0-1.52.642-.517.642-.517 1.912 0 1.269.517 1.911.533.642 1.52.642M172.274 46.631v-1.99h2.193v1.99zm0 9.448V48.04h2.193v8.038zM168.288 56.236q-1.473 0-2.131-.595-.642-.595-.642-1.959V49.61h-1.77v-1.677h1.77V45.27h2.162v2.663h2.648v1.677h-2.648v3.54q0 .737.235 1.035.236.282.846.282.33 0 .69-.063.375-.063.689-.172l.172 1.708a6.6 6.6 0 0 1-1.018.219 6 6 0 0 1-1.003.078M160.14 56.236q-1.426 0-2.444-.502a3.5 3.5 0 0 1-1.551-1.44q-.533-.956-.533-2.288 0-1.348.533-2.288a3.5 3.5 0 0 1 1.551-1.441q1.018-.502 2.444-.502.72 0 1.347.141.628.141 1.222.455l-.344 1.645a4.4 4.4 0 0 0-1.066-.423 3.7 3.7 0 0 0-1.002-.141q-1.19 0-1.849.658-.642.657-.642 1.896 0 1.221.642 1.895.658.659 1.849.658.501 0 1.002-.125.517-.14 1.066-.439l.344 1.646q-.594.313-1.222.454a6 6 0 0 1-1.347.14M149.244 56.236q-1.442 0-2.115-.8-.674-.798-.674-2.49v-5.014h2.146v4.59q0 1.02.314 1.49.329.453 1.049.453.55 0 .956-.219a1.73 1.73 0 0 0 .658-.627q.235-.39.235-.893v-4.794h2.162v8.147h-2.052l-.032-.956h-.031q-.486.565-1.128.847-.642.266-1.488.266M139.59 56.08v-8.148h2.068l.016 1.52h.047a3.8 3.8 0 0 1 .955-.909q.565-.376 1.222-.564.674-.204 1.379-.204v1.834q-.971 0-1.77.36-.8.36-1.269.987-.47.611-.47 1.363v3.76zM135.714 56.236q-1.473 0-2.131-.595-.642-.595-.642-1.959V49.61h-1.771v-1.677h1.771V45.27h2.162v2.663h2.648v1.677h-2.648v3.54q0 .737.235 1.035.236.282.846.282.329 0 .689-.063.376-.063.69-.172l.172 1.708a6.6 6.6 0 0 1-1.018.219 6 6 0 0 1-1.003.078M126.957 56.236q-.548 0-1.175-.078a10 10 0 0 1-1.175-.189 7 7 0 0 1-.987-.313l.267-1.645q.751.267 1.441.407.705.141 1.394.141.784 0 1.144-.203a.67.67 0 0 0 .36-.627.63.63 0 0 0-.125-.407q-.125-.157-.454-.282a4.7 4.7 0 0 0-.893-.267 10 10 0 0 1-1.724-.58q-.705-.345-1.081-.845-.376-.502-.376-1.222 0-1.16.878-1.755.877-.596 2.553-.596.768 0 1.583.126a9.7 9.7 0 0 1 1.551.36l-.266 1.645a8.7 8.7 0 0 0-1.332-.344 7.4 7.4 0 0 0-1.254-.11q-.783 0-1.159.188-.376.172-.376.548 0 .22.125.376.126.157.439.282.313.126.877.25.736.174 1.332.408a4.1 4.1 0 0 1 1.019.564q.423.315.642.737.235.422.235.971 0 .752-.423 1.316-.423.549-1.206.846-.768.298-1.834.298M114.467 56.08v-8.148h2.052l.016.956h.031a3.1 3.1 0 0 1 1.16-.83q.673-.283 1.551-.283 1.472 0 2.162.8.705.783.705 2.49v5.014h-2.147v-4.59q0-1.02-.344-1.473-.345-.47-1.097-.47-.564 0-1.003.235-.438.22-.689.61-.235.378-.235.894v4.794zM108.677 56.236q-2.006 0-3.102-1.097-1.081-1.097-1.081-3.133t1.081-3.134q1.096-1.097 3.102-1.097t3.086 1.097q1.081 1.097 1.081 3.134t-1.081 3.133-3.086 1.097m0-1.677q1.003 0 1.504-.642.517-.642.517-1.911t-.517-1.912q-.502-.642-1.504-.642-.987 0-1.52.642-.517.642-.517 1.912 0 1.269.517 1.911.533.642 1.52.642M99.832 56.236q-1.881 0-3.228-.69a4.9 4.9 0 0 1-2.068-2.02q-.705-1.317-.705-3.165 0-1.85.705-3.165a4.8 4.8 0 0 1 2.068-2.006q1.347-.705 3.228-.705 2.146 0 3.807.925l-.501 1.911q-1.614-.908-3.212-.908-1.19 0-2.053.47a3.13 3.13 0 0 0-1.316 1.363q-.454.877-.454 2.115 0 1.222.454 2.115.455.893 1.316 1.363.862.47 2.053.47 1.566 0 3.212-.909l.501 1.912q-1.66.924-3.807.924M87.686 56.079v-9.51h-3.667v-1.927h9.605v1.927h-3.667v9.51zM80.174 56.079V44.642h2.193v11.437zm-6.832 0V44.642h2.194v11.437zm1.097-4.982v-1.928h6.831v1.928z"/></g></svg>